<svg width="34" height="34" viewBox="0 0 34 34" fill="none" xmlns="http://www.w3.org/2000/svg">
<path d="M17 2.83334C9.17291 2.83334 2.83333 9.17293 2.83333 17C2.83172 19.974 3.76665 22.873 5.50547 25.2856C7.24429 27.6983 9.6987 29.5022 12.5205 30.4413C13.2288 30.5646 13.4937 30.1396 13.4937 29.767C13.4937 29.4313 13.4753 28.3163 13.4753 27.1292C9.91666 27.7851 8.99583 26.2622 8.7125 25.4646C8.55241 25.0566 7.8625 23.8 7.26041 23.4628C6.76458 23.1979 6.05625 22.542 7.242 22.525C8.35833 22.5066 9.1545 23.5521 9.42083 23.9771C10.6958 26.1191 12.733 25.517 13.5462 25.1458C13.6708 24.225 14.042 23.6059 14.45 23.2518C11.2979 22.8976 8.00416 21.675 8.00416 16.2563C8.00416 14.7149 8.55241 13.4413 9.45625 12.4483C9.31458 12.0941 8.81875 10.642 9.59791 8.69409C9.59791 8.69409 10.7837 8.32293 13.4937 10.1476C14.647 9.82751 15.8386 9.66641 17.0354 9.66876C18.2396 9.66876 19.4437 9.82743 20.5771 10.1462C23.2857 8.30451 24.4729 8.69551 24.4729 8.69551C25.2521 10.6434 24.7562 12.0955 24.6146 12.4497C25.517 13.4413 26.0667 14.6979 26.0667 16.2563C26.0667 21.6934 22.7559 22.8976 19.6038 23.2518C20.1167 23.6938 20.5601 24.5438 20.5601 25.8726C20.5601 27.7667 20.5417 29.2896 20.5417 29.7684C20.5417 30.1396 20.808 30.5816 21.5163 30.4399C24.3285 29.4905 26.772 27.6831 28.5032 25.2721C30.2343 22.8612 31.1659 19.9681 31.1667 17C31.1667 9.17293 24.8271 2.83334 17 2.83334Z" fill="#9206FF"/>
</svg>
