<svg width="62" height="62" viewBox="0 0 62 62" fill="none" xmlns="http://www.w3.org/2000/svg">
<circle cx="31" cy="31" r="31" fill="#212121"/>
<path d="M20.3333 19H41.6667C42.0203 19 42.3594 19.1405 42.6095 19.3905C42.8595 19.6406 43 19.9797 43 20.3333V41.6667C43 42.0203 42.8595 42.3594 42.6095 42.6095C42.3594 42.8595 42.0203 43 41.6667 43H20.3333C19.9797 43 19.6406 42.8595 19.3905 42.6095C19.1405 42.3594 19 42.0203 19 41.6667V20.3333C19 19.9797 19.1405 19.6406 19.3905 19.3905C19.6406 19.1405 19.9797 19 20.3333 19ZM21.6667 21.6667V40.3333H40.3333V21.6667H21.6667ZM25 27C24.4696 27 23.9609 26.7893 23.5858 26.4142C23.2107 26.0391 23 25.5304 23 25C23 24.4696 23.2107 23.9609 23.5858 23.5858C23.9609 23.2107 24.4696 23 25 23C25.5304 23 26.0391 23.2107 26.4142 23.5858C26.7893 23.9609 27 24.4696 27 25C27 25.5304 26.7893 26.0391 26.4142 26.4142C26.0391 26.7893 25.5304 27 25 27ZM23.6667 28.3333H26.3333V38.3333H23.6667V28.3333ZM31 28.9067C31.7787 28.1533 32.688 27.6667 33.6667 27.6667C36.428 27.6667 38.3333 29.9053 38.3333 32.6667V38.3333H35.6667V32.6667C35.6667 32.0478 35.4208 31.4543 34.9832 31.0168C34.5457 30.5792 33.9522 30.3333 33.3333 30.3333C32.7145 30.3333 32.121 30.5792 31.6834 31.0168C31.2458 31.4543 31 32.0478 31 32.6667V38.3333H28.3333V28.3333H31V28.9067Z" fill="#9206FF"/>
</svg>
